<svg id="Layer_1" data-name="Layer 1" xmlns="http://www.w3.org/2000/svg" width="512" height="512" viewBox="0 0 512 512"><defs><style>.cls-1{fill:#f4b400;}.cls-2{fill:#0f9d58;}.cls-3{fill:#4285f4;}</style></defs><path class="cls-1" d="M380,167.5c-105.2-51.6-208.83-21.5-247.5,0L153,191c84.8-40.8,174-17,208,0Z"/><path class="cls-2" d="M255.5,335.5,118.5,174l-25,16.5L249.5,373h13l158-182.5L394,174Z"/><path class="cls-3" d="M19.5,255c21.6-22.4,49.67-46.67,61-56l19,22.5c-10.8,6-30.83,24.83-39.5,33.5,47.6,54,113.17,77.17,140,82l28,35.5C124.4,362.5,45.83,290,19.5,255Z"/><path class="cls-3" d="M493,255c-21.6-22.4-49.67-46.67-61-56l-19,22.5c10.8,6,30.83,24.83,39.5,33.5-47.6,54-113.17,77.17-140,82l-28,35.5C388.1,362.5,466.67,290,493,255Z"/><path class="cls-1" d="M259.5,225c-6.8-17.2,6.5-23.17,14-24-12.8-8-29.67-3.33-36.5,0-12,6-18.33,17.83-20,23-6,16,1.33,32.5,6.5,39,8.8,13.2,27.67,16.5,36,16.5,16.8.4,29.33-13.83,33.5-21,10.4-18.4,2.67-37-2.5-44,1.6,9.2-5,14.83-8.5,16.5C268.8,235.8,261.5,229,259.5,225Z"/></svg>